<mxfile host="app.diagrams.net" modified="2024-07-08T15:21:26.064Z" agent="Mozilla/5.0 (Windows NT 10.0; Win64; x64) AppleWebKit/537.36 (KHTML, like Gecko) Chrome/126.0.0.0 Safari/537.36 Edg/126.0.0.0" etag="dV5Xsicak01zE7JyQHeN" version="24.4.0" type="device">
  <diagram name="Page-1" id="IHVP3oiDGZrC1gQpXjFu">
    <mxGraphModel dx="653" dy="924" grid="1" gridSize="10" guides="1" tooltips="1" connect="1" arrows="1" fold="1" page="1" pageScale="1" pageWidth="827" pageHeight="1169" math="0" shadow="0">
      <root>
        <mxCell id="0" />
        <mxCell id="1" parent="0" />
        <mxCell id="lKEchALwq0cWaDfv8S4y-1" value="" style="rounded=0;whiteSpace=wrap;html=1;" vertex="1" parent="1">
          <mxGeometry x="130" y="230" width="680" height="550" as="geometry" />
        </mxCell>
        <mxCell id="lKEchALwq0cWaDfv8S4y-2" value="" style="rounded=0;whiteSpace=wrap;html=1;" vertex="1" parent="1">
          <mxGeometry x="110" y="40" width="320" height="120" as="geometry" />
        </mxCell>
        <mxCell id="lKEchALwq0cWaDfv8S4y-3" value="" style="rounded=0;whiteSpace=wrap;html=1;" vertex="1" parent="1">
          <mxGeometry x="110" y="40" width="130" height="120" as="geometry" />
        </mxCell>
        <mxCell id="lKEchALwq0cWaDfv8S4y-4" value="" style="endArrow=none;html=1;rounded=0;entryX=0;entryY=0;entryDx=0;entryDy=0;exitX=1;exitY=1;exitDx=0;exitDy=0;" edge="1" parent="1" source="lKEchALwq0cWaDfv8S4y-3" target="lKEchALwq0cWaDfv8S4y-3">
          <mxGeometry width="50" height="50" relative="1" as="geometry">
            <mxPoint x="360" y="360" as="sourcePoint" />
            <mxPoint x="410" y="310" as="targetPoint" />
          </mxGeometry>
        </mxCell>
        <mxCell id="lKEchALwq0cWaDfv8S4y-6" value="&lt;h1 style=&quot;margin-top: 0px;&quot;&gt;Heading&lt;/h1&gt;&lt;p&gt;Lorem ipsum dolor sit amet, consectetur adipisicing elit, sed do eiusmod tempor incididunt ut labore et dolore magna aliqua.&lt;/p&gt;" style="text;html=1;whiteSpace=wrap;overflow=hidden;rounded=0;" vertex="1" parent="1">
          <mxGeometry x="250" y="40" width="170" height="80" as="geometry" />
        </mxCell>
        <mxCell id="lKEchALwq0cWaDfv8S4y-8" value="View Code" style="rounded=1;whiteSpace=wrap;html=1;" vertex="1" parent="1">
          <mxGeometry x="250" y="130" width="70" height="20" as="geometry" />
        </mxCell>
        <mxCell id="lKEchALwq0cWaDfv8S4y-9" value="View Project" style="rounded=1;whiteSpace=wrap;html=1;" vertex="1" parent="1">
          <mxGeometry x="340" y="130" width="70" height="20" as="geometry" />
        </mxCell>
        <mxCell id="lKEchALwq0cWaDfv8S4y-10" value="" style="rounded=0;whiteSpace=wrap;html=1;" vertex="1" parent="1">
          <mxGeometry x="140" y="240" width="320" height="120" as="geometry" />
        </mxCell>
        <mxCell id="lKEchALwq0cWaDfv8S4y-11" value="" style="rounded=0;whiteSpace=wrap;html=1;" vertex="1" parent="1">
          <mxGeometry x="140" y="240" width="130" height="120" as="geometry" />
        </mxCell>
        <mxCell id="lKEchALwq0cWaDfv8S4y-12" value="" style="endArrow=none;html=1;rounded=0;entryX=0;entryY=0;entryDx=0;entryDy=0;exitX=1;exitY=1;exitDx=0;exitDy=0;" edge="1" parent="1" source="lKEchALwq0cWaDfv8S4y-11" target="lKEchALwq0cWaDfv8S4y-11">
          <mxGeometry width="50" height="50" relative="1" as="geometry">
            <mxPoint x="390" y="560" as="sourcePoint" />
            <mxPoint x="440" y="510" as="targetPoint" />
          </mxGeometry>
        </mxCell>
        <mxCell id="lKEchALwq0cWaDfv8S4y-13" value="&lt;h1 style=&quot;margin-top: 0px;&quot;&gt;Heading&lt;/h1&gt;&lt;p&gt;Lorem ipsum dolor sit amet, consectetur adipisicing elit, sed do eiusmod tempor incididunt ut labore et dolore magna aliqua.&lt;/p&gt;" style="text;html=1;whiteSpace=wrap;overflow=hidden;rounded=0;" vertex="1" parent="1">
          <mxGeometry x="280" y="240" width="170" height="80" as="geometry" />
        </mxCell>
        <mxCell id="lKEchALwq0cWaDfv8S4y-14" value="View Code" style="rounded=1;whiteSpace=wrap;html=1;" vertex="1" parent="1">
          <mxGeometry x="320" y="330" width="70" height="20" as="geometry" />
        </mxCell>
        <mxCell id="lKEchALwq0cWaDfv8S4y-16" value="" style="rounded=0;whiteSpace=wrap;html=1;" vertex="1" parent="1">
          <mxGeometry x="480" y="240" width="320" height="120" as="geometry" />
        </mxCell>
        <mxCell id="lKEchALwq0cWaDfv8S4y-17" value="" style="rounded=0;whiteSpace=wrap;html=1;" vertex="1" parent="1">
          <mxGeometry x="480" y="240" width="130" height="120" as="geometry" />
        </mxCell>
        <mxCell id="lKEchALwq0cWaDfv8S4y-18" value="" style="endArrow=none;html=1;rounded=0;entryX=0;entryY=0;entryDx=0;entryDy=0;exitX=1;exitY=1;exitDx=0;exitDy=0;" edge="1" parent="1" source="lKEchALwq0cWaDfv8S4y-17" target="lKEchALwq0cWaDfv8S4y-17">
          <mxGeometry width="50" height="50" relative="1" as="geometry">
            <mxPoint x="730" y="560" as="sourcePoint" />
            <mxPoint x="780" y="510" as="targetPoint" />
          </mxGeometry>
        </mxCell>
        <mxCell id="lKEchALwq0cWaDfv8S4y-19" value="&lt;h1 style=&quot;margin-top: 0px;&quot;&gt;Heading&lt;/h1&gt;&lt;p&gt;Lorem ipsum dolor sit amet, consectetur adipisicing elit, sed do eiusmod tempor incididunt ut labore et dolore magna aliqua.&lt;/p&gt;" style="text;html=1;whiteSpace=wrap;overflow=hidden;rounded=0;" vertex="1" parent="1">
          <mxGeometry x="620" y="240" width="170" height="80" as="geometry" />
        </mxCell>
        <mxCell id="lKEchALwq0cWaDfv8S4y-20" value="View Code" style="rounded=1;whiteSpace=wrap;html=1;" vertex="1" parent="1">
          <mxGeometry x="620" y="330" width="70" height="20" as="geometry" />
        </mxCell>
        <mxCell id="lKEchALwq0cWaDfv8S4y-21" value="View Project" style="rounded=1;whiteSpace=wrap;html=1;" vertex="1" parent="1">
          <mxGeometry x="710" y="330" width="70" height="20" as="geometry" />
        </mxCell>
        <mxCell id="lKEchALwq0cWaDfv8S4y-22" value="" style="rounded=0;whiteSpace=wrap;html=1;" vertex="1" parent="1">
          <mxGeometry x="140" y="370" width="320" height="120" as="geometry" />
        </mxCell>
        <mxCell id="lKEchALwq0cWaDfv8S4y-23" value="" style="rounded=0;whiteSpace=wrap;html=1;" vertex="1" parent="1">
          <mxGeometry x="140" y="370" width="130" height="120" as="geometry" />
        </mxCell>
        <mxCell id="lKEchALwq0cWaDfv8S4y-24" value="" style="endArrow=none;html=1;rounded=0;entryX=0;entryY=0;entryDx=0;entryDy=0;exitX=1;exitY=1;exitDx=0;exitDy=0;" edge="1" parent="1" source="lKEchALwq0cWaDfv8S4y-23" target="lKEchALwq0cWaDfv8S4y-23">
          <mxGeometry width="50" height="50" relative="1" as="geometry">
            <mxPoint x="390" y="690" as="sourcePoint" />
            <mxPoint x="440" y="640" as="targetPoint" />
          </mxGeometry>
        </mxCell>
        <mxCell id="lKEchALwq0cWaDfv8S4y-25" value="&lt;h1 style=&quot;margin-top: 0px;&quot;&gt;Heading&lt;/h1&gt;&lt;p&gt;Lorem ipsum dolor sit amet, consectetur adipisicing elit, sed do eiusmod tempor incididunt ut labore et dolore magna aliqua.&lt;/p&gt;" style="text;html=1;whiteSpace=wrap;overflow=hidden;rounded=0;" vertex="1" parent="1">
          <mxGeometry x="280" y="370" width="170" height="80" as="geometry" />
        </mxCell>
        <mxCell id="lKEchALwq0cWaDfv8S4y-29" value="" style="rounded=0;whiteSpace=wrap;html=1;" vertex="1" parent="1">
          <mxGeometry x="850" y="230" width="530" height="550" as="geometry" />
        </mxCell>
        <mxCell id="lKEchALwq0cWaDfv8S4y-45" value="" style="rounded=0;whiteSpace=wrap;html=1;" vertex="1" parent="1">
          <mxGeometry x="920" y="110" width="240" height="90" as="geometry" />
        </mxCell>
        <mxCell id="lKEchALwq0cWaDfv8S4y-46" value="" style="rounded=0;whiteSpace=wrap;html=1;" vertex="1" parent="1">
          <mxGeometry x="920" y="110" width="100" height="90" as="geometry" />
        </mxCell>
        <mxCell id="lKEchALwq0cWaDfv8S4y-47" value="" style="endArrow=none;html=1;rounded=0;entryX=0;entryY=0;entryDx=0;entryDy=0;exitX=1;exitY=1;exitDx=0;exitDy=0;" edge="1" parent="1" source="lKEchALwq0cWaDfv8S4y-46" target="lKEchALwq0cWaDfv8S4y-46">
          <mxGeometry width="50" height="50" relative="1" as="geometry">
            <mxPoint x="1170" y="430" as="sourcePoint" />
            <mxPoint x="1220" y="380" as="targetPoint" />
          </mxGeometry>
        </mxCell>
        <mxCell id="lKEchALwq0cWaDfv8S4y-48" value="View details..." style="rounded=1;whiteSpace=wrap;html=1;" vertex="1" parent="1">
          <mxGeometry x="1040" y="160" width="90" height="30" as="geometry" />
        </mxCell>
        <mxCell id="lKEchALwq0cWaDfv8S4y-49" value="&lt;h1 style=&quot;margin-top: 0px;&quot;&gt;Heading&lt;/h1&gt;&lt;p&gt;&lt;br&gt;&lt;/p&gt;" style="text;html=1;whiteSpace=wrap;overflow=hidden;rounded=0;" vertex="1" parent="1">
          <mxGeometry x="1040" y="110" width="110" height="40" as="geometry" />
        </mxCell>
        <mxCell id="lKEchALwq0cWaDfv8S4y-50" value="" style="rounded=0;whiteSpace=wrap;html=1;" vertex="1" parent="1">
          <mxGeometry x="860" y="240" width="240" height="90" as="geometry" />
        </mxCell>
        <mxCell id="lKEchALwq0cWaDfv8S4y-51" value="" style="rounded=0;whiteSpace=wrap;html=1;" vertex="1" parent="1">
          <mxGeometry x="860" y="240" width="100" height="90" as="geometry" />
        </mxCell>
        <mxCell id="lKEchALwq0cWaDfv8S4y-52" value="" style="endArrow=none;html=1;rounded=0;entryX=0;entryY=0;entryDx=0;entryDy=0;exitX=1;exitY=1;exitDx=0;exitDy=0;" edge="1" parent="1" source="lKEchALwq0cWaDfv8S4y-51" target="lKEchALwq0cWaDfv8S4y-51">
          <mxGeometry width="50" height="50" relative="1" as="geometry">
            <mxPoint x="1110" y="560" as="sourcePoint" />
            <mxPoint x="1160" y="510" as="targetPoint" />
          </mxGeometry>
        </mxCell>
        <mxCell id="lKEchALwq0cWaDfv8S4y-53" value="View details..." style="rounded=1;whiteSpace=wrap;html=1;" vertex="1" parent="1">
          <mxGeometry x="980" y="290" width="90" height="30" as="geometry" />
        </mxCell>
        <mxCell id="lKEchALwq0cWaDfv8S4y-54" value="&lt;h1 style=&quot;margin-top: 0px;&quot;&gt;Heading&lt;/h1&gt;&lt;p&gt;&lt;br&gt;&lt;/p&gt;" style="text;html=1;whiteSpace=wrap;overflow=hidden;rounded=0;" vertex="1" parent="1">
          <mxGeometry x="980" y="240" width="110" height="40" as="geometry" />
        </mxCell>
        <mxCell id="lKEchALwq0cWaDfv8S4y-55" value="" style="rounded=0;whiteSpace=wrap;html=1;" vertex="1" parent="1">
          <mxGeometry x="1121" y="240" width="240" height="90" as="geometry" />
        </mxCell>
        <mxCell id="lKEchALwq0cWaDfv8S4y-56" value="" style="rounded=0;whiteSpace=wrap;html=1;" vertex="1" parent="1">
          <mxGeometry x="1121" y="240" width="100" height="90" as="geometry" />
        </mxCell>
        <mxCell id="lKEchALwq0cWaDfv8S4y-57" value="" style="endArrow=none;html=1;rounded=0;entryX=0;entryY=0;entryDx=0;entryDy=0;exitX=1;exitY=1;exitDx=0;exitDy=0;" edge="1" parent="1" source="lKEchALwq0cWaDfv8S4y-56" target="lKEchALwq0cWaDfv8S4y-56">
          <mxGeometry width="50" height="50" relative="1" as="geometry">
            <mxPoint x="1371" y="560" as="sourcePoint" />
            <mxPoint x="1421" y="510" as="targetPoint" />
          </mxGeometry>
        </mxCell>
        <mxCell id="lKEchALwq0cWaDfv8S4y-58" value="View details..." style="rounded=1;whiteSpace=wrap;html=1;" vertex="1" parent="1">
          <mxGeometry x="1241" y="290" width="90" height="30" as="geometry" />
        </mxCell>
        <mxCell id="lKEchALwq0cWaDfv8S4y-59" value="&lt;h1 style=&quot;margin-top: 0px;&quot;&gt;Heading&lt;/h1&gt;&lt;p&gt;&lt;br&gt;&lt;/p&gt;" style="text;html=1;whiteSpace=wrap;overflow=hidden;rounded=0;" vertex="1" parent="1">
          <mxGeometry x="1241" y="240" width="110" height="40" as="geometry" />
        </mxCell>
        <mxCell id="lKEchALwq0cWaDfv8S4y-60" value="" style="rounded=0;whiteSpace=wrap;html=1;" vertex="1" parent="1">
          <mxGeometry x="860" y="340" width="240" height="90" as="geometry" />
        </mxCell>
        <mxCell id="lKEchALwq0cWaDfv8S4y-61" value="" style="rounded=0;whiteSpace=wrap;html=1;" vertex="1" parent="1">
          <mxGeometry x="860" y="340" width="100" height="90" as="geometry" />
        </mxCell>
        <mxCell id="lKEchALwq0cWaDfv8S4y-62" value="" style="endArrow=none;html=1;rounded=0;entryX=0;entryY=0;entryDx=0;entryDy=0;exitX=1;exitY=1;exitDx=0;exitDy=0;" edge="1" parent="1" source="lKEchALwq0cWaDfv8S4y-61" target="lKEchALwq0cWaDfv8S4y-61">
          <mxGeometry width="50" height="50" relative="1" as="geometry">
            <mxPoint x="1110" y="660" as="sourcePoint" />
            <mxPoint x="1160" y="610" as="targetPoint" />
          </mxGeometry>
        </mxCell>
        <mxCell id="lKEchALwq0cWaDfv8S4y-63" value="View details..." style="rounded=1;whiteSpace=wrap;html=1;" vertex="1" parent="1">
          <mxGeometry x="980" y="390" width="90" height="30" as="geometry" />
        </mxCell>
        <mxCell id="lKEchALwq0cWaDfv8S4y-64" value="&lt;h1 style=&quot;margin-top: 0px;&quot;&gt;Heading&lt;/h1&gt;&lt;p&gt;&lt;br&gt;&lt;/p&gt;" style="text;html=1;whiteSpace=wrap;overflow=hidden;rounded=0;" vertex="1" parent="1">
          <mxGeometry x="980" y="340" width="110" height="40" as="geometry" />
        </mxCell>
        <mxCell id="lKEchALwq0cWaDfv8S4y-65" value="" style="rounded=0;whiteSpace=wrap;html=1;" vertex="1" parent="1">
          <mxGeometry x="1490" y="240" width="320" height="260" as="geometry" />
        </mxCell>
        <mxCell id="lKEchALwq0cWaDfv8S4y-66" value="" style="rounded=0;whiteSpace=wrap;html=1;" vertex="1" parent="1">
          <mxGeometry x="1500" y="290" width="130" height="120" as="geometry" />
        </mxCell>
        <mxCell id="lKEchALwq0cWaDfv8S4y-67" value="" style="endArrow=none;html=1;rounded=0;entryX=0;entryY=0;entryDx=0;entryDy=0;exitX=1;exitY=1;exitDx=0;exitDy=0;" edge="1" parent="1" source="lKEchALwq0cWaDfv8S4y-66" target="lKEchALwq0cWaDfv8S4y-66">
          <mxGeometry width="50" height="50" relative="1" as="geometry">
            <mxPoint x="1750" y="610" as="sourcePoint" />
            <mxPoint x="1800" y="560" as="targetPoint" />
          </mxGeometry>
        </mxCell>
        <mxCell id="lKEchALwq0cWaDfv8S4y-68" value="&lt;h1 style=&quot;margin-top: 0px;&quot;&gt;Heading&lt;/h1&gt;&lt;p&gt;&lt;br&gt;&lt;/p&gt;" style="text;html=1;whiteSpace=wrap;overflow=hidden;rounded=0;" vertex="1" parent="1">
          <mxGeometry x="1600" y="240" width="100" height="40" as="geometry" />
        </mxCell>
        <mxCell id="lKEchALwq0cWaDfv8S4y-69" value="View Code" style="rounded=1;whiteSpace=wrap;html=1;" vertex="1" parent="1">
          <mxGeometry x="1685" y="430" width="70" height="20" as="geometry" />
        </mxCell>
        <mxCell id="lKEchALwq0cWaDfv8S4y-70" value="View Project" style="rounded=1;whiteSpace=wrap;html=1;" vertex="1" parent="1">
          <mxGeometry x="1685" y="470" width="70" height="20" as="geometry" />
        </mxCell>
        <mxCell id="lKEchALwq0cWaDfv8S4y-72" value="" style="endArrow=classic;html=1;rounded=0;entryX=0.009;entryY=0.151;entryDx=0;entryDy=0;exitX=1;exitY=0.5;exitDx=0;exitDy=0;entryPerimeter=0;" edge="1" parent="1" source="lKEchALwq0cWaDfv8S4y-55" target="lKEchALwq0cWaDfv8S4y-65">
          <mxGeometry width="50" height="50" relative="1" as="geometry">
            <mxPoint x="1280" y="830" as="sourcePoint" />
            <mxPoint x="1330" y="780" as="targetPoint" />
          </mxGeometry>
        </mxCell>
        <mxCell id="lKEchALwq0cWaDfv8S4y-73" value="&lt;p style=&quot;line-height: 110%;&quot;&gt;&lt;/p&gt;&lt;h1 style=&quot;margin-top: 0px; line-height: 50%;&quot;&gt;&lt;span style=&quot;background-color: initial; font-size: 12px; font-weight: normal;&quot;&gt;Lorem ipsum dolor sit amet, consectetur adipisicing elit, sed do eiusmod tempor incididunt ut labore et dolore magna aliqua.&lt;/span&gt;&lt;br&gt;&lt;/h1&gt;&lt;p&gt;&lt;/p&gt;" style="text;html=1;whiteSpace=wrap;overflow=hidden;rounded=0;" vertex="1" parent="1">
          <mxGeometry x="1640" y="280" width="160" height="120" as="geometry" />
        </mxCell>
        <mxCell id="lKEchALwq0cWaDfv8S4y-75" value="Technology:&amp;nbsp;&lt;div&gt;&lt;br&gt;&lt;/div&gt;&lt;div&gt;C# | Thing 1 | Thing 2&amp;nbsp;&lt;/div&gt;" style="text;html=1;whiteSpace=wrap;overflow=hidden;rounded=0;" vertex="1" parent="1">
          <mxGeometry x="1500" y="430" width="140" height="60" as="geometry" />
        </mxCell>
      </root>
    </mxGraphModel>
  </diagram>
</mxfile>
